Coordinates
version=1
nRows=24
nColumns=38
inDegrees=no

Units are S.I. units (second, meters, Newtons, ...)
If the header above contains a line with 'inDegrees', this indicates whether rotational values are in degrees (yes) or radians (no).

endheader
time	pelvis_tilt	pelvis_list	pelvis_rotation	pelvis_tx	pelvis_ty	pelvis_tz	hip_flexion_r	hip_adduction_r	hip_rotation_r	knee_angle_r	ankle_angle_r	subtalar_angle_r	mtp_angle_r	hip_flexion_l	hip_adduction_l	hip_rotation_l	knee_angle_l	ankle_angle_l	subtalar_angle_l	mtp_angle_l	lumbar_extension	lumbar_bending	lumbar_rotation	arm_flex_r	arm_add_r	arm_rot_r	elbow_flex_r	pro_sup_r	wrist_flex_r	wrist_dev_r	arm_flex_l	arm_add_l	arm_rot_l	elbow_flex_l	pro_sup_l	wrist_flex_l	wrist_dev_l
63.73	0.769501	1.47719	0.747769	0.75513	0.121091	1.00145	0.0842041	-0.014712	-0.16494	0.198676	0.0824189	0	0	-0.0303236	-0.0816628	-0.205384	0	0.0059975	0	0	0.0274745	0.114061	0.0293046	0.124345	-0.244776	0.0946552	0.252391	1.50724	0	0	0.141724	-0.181666	0.299184	0.238471	1.5708	0	0
63.74	0.781041	1.47798	0.735677	0.755269	0.121612	1.0014	0.0820027	-0.0144093	-0.163428	0.198574	0.0838042	0	0	-0.0328421	-0.0819502	-0.205242	0	0.00678445	0	0	0.0289685	0.113907	0.028791	0.122483	-0.24482	0.101887	0.251685	1.49833	0	0	0.13891	-0.182107	0.298926	0.237437	1.5708	0	0
63.75	0.79434	1.47854	0.721878	0.755424	0.122076	1.00136	0.0799635	-0.0137962	-0.162434	0.19855	0.084633	0	0	-0.0351414	-0.0824941	-0.20486	0	0.00747744	0	0	0.0299824	0.114004	0.0284152	0.121958	-0.243577	0.0939195	0.248295	1.5135	0	0	0.136632	-0.182434	0.298581	0.236125	1.5708	0	0
63.76	0.809052	1.47894	0.706741	0.755582	0.122521	1.00137	0.0778069	-0.0129325	-0.16186	0.198038	0.0845743	0	0	-0.0374034	-0.0832479	-0.204335	0	0.00817636	0	0	0.0309682	0.114362	0.0277487	0.120849	-0.243094	0.0936029	0.246456	1.51735	0	0	0.134329	-0.182696	0.297721	0.234739	1.5708	0	0
63.77	0.824831	1.47937	0.690488	0.75573	0.122933	1.00145	0.0754982	-0.0120745	-0.161471	0.197203	0.0843134	0	0	-0.0398033	-0.084003	-0.203946	0	0.0086258	0	0	0.0316124	0.114785	0.0270948	0.119719	-0.242565	0.0934902	0.244924	1.52052	0	0	0.132317	-0.18276	0.296806	0.233064	1.5708	0	0
63.78	0.843774	1.47991	0.671228	0.755866	0.12332	1.00157	0.0728098	-0.0111106	-0.160739	0.196303	0.0842759	0	0	-0.0426083	-0.0848017	-0.203387	0	0.00880939	0	0	0.0316567	0.115251	0.0263882	0.11857	-0.241937	0.093532	0.243837	1.52271	0	0	0.130742	-0.182702	0.296164	0.230961	1.5708	0	0
63.79	0.863883	1.48036	0.651004	0.756004	0.123713	1.00171	0.0699832	-0.00998959	-0.160354	0.195362	0.0842806	0	0	-0.0454329	-0.0856944	-0.202641	0	0.008819	0	0	0.0316084	0.115734	0.0256248	0.117174	-0.241153	0.0930508	0.243153	1.52441	0	0	0.129028	-0.182791	0.295287	0.229542	1.5708	0	0
63.8	0.879085	1.48085	0.635587	0.756112	0.12407	1.00182	0.0677052	-0.00931691	-0.160266	0.194769	0.0844257	0	0	-0.0476729	-0.0862606	-0.202448	0	0.00905991	0	0	0.0317117	0.115907	0.0249775	0.115551	-0.240398	0.0920758	0.243049	1.5258	0	0	0.127058	-0.182963	0.29415	0.228905	1.5708	0	0
63.81	0.88849	1.48136	0.625828	0.756205	0.124374	1.00191	0.0661583	-0.00912975	-0.160189	0.194609	0.0845981	0	0	-0.0490323	-0.0864955	-0.20295	0	0.00964239	0	0	0.0319763	0.11576	0.0245979	0.113889	-0.239774	0.0910981	0.243172	1.52696	0	0	0.125317	-0.183077	0.293602	0.228084	1.5708	0	0
63.82	0.89495	1.48168	0.619152	0.756306	0.124653	1.00194	0.0651355	-0.0089512	-0.160038	0.194767	0.0849731	0	0	-0.0496699	-0.0867811	-0.203457	0	0.0103845	0	0	0.0325738	0.1156	0.0239587	0.111597	-0.239997	0.0995398	0.244895	1.51489	0	0	0.123555	-0.183281	0.29331	0.227128	1.5708	0	0
63.83	0.900769	1.48208	0.613242	0.756386	0.124897	1.00192	0.0642604	-0.0088982	-0.159791	0.195051	0.0856899	0	0	-0.0499983	-0.0869584	-0.203773	0	0.011222	0	0	0.0329842	0.115269	0.0235854	0.110112	-0.239643	0.0990502	0.244995	1.51727	0	0	0.122358	-0.183439	0.293444	0.225654	1.5708	0	0
63.84	0.908606	1.48264	0.605259	0.756474	0.125114	1.00189	0.0633531	-0.00887823	-0.159279	0.195801	0.0865396	0	0	-0.0505468	-0.0870626	-0.204137	0	0.0120338	0	0	0.0329539	0.114895	0.023389	0.109056	-0.239417	0.0993529	0.244586	1.51928	0	0	0.121114	-0.183748	0.293439	0.224793	1.5708	0	0
63.85	0.915289	1.4833	0.598112	0.756571	0.125323	1.00187	0.0626686	-0.00909935	-0.158811	0.196892	0.0875756	0	0	-0.0512697	-0.0869489	-0.204871	0	0.0128142	0	0	0.0328212	0.114442	0.0235689	0.108252	-0.239196	0.100045	0.243725	1.52156	0	0	0.119697	-0.184139	0.293025	0.224285	1.5708	0	0
63.86	0.919792	1.48402	0.593037	0.756658	0.12554	1.00187	0.0621291	-0.00950422	-0.158183	0.197883	0.0883285	0	0	-0.0522345	-0.0865847	-0.205631	0	0.0133826	0	0	0.0327964	0.113886	0.0238177	0.107648	-0.238927	0.101162	0.242444	1.52411	0	0	0.117919	-0.184635	0.292194	0.224491	1.5708	0	0
63.87	0.924875	1.48453	0.587458	0.756745	0.125795	1.00189	0.0613993	-0.00961515	-0.157345	0.198398	0.0887743	0	0	-0.0536337	-0.0863257	-0.205875	0	0.0134786	0	0	0.0329348	0.113528	0.0239375	0.107562	-0.237988	0.0970363	0.239709	1.5345	0	0	0.115563	-0.185291	0.290604	0.225828	1.5708	0	0
63.88	0.930377	1.48456	0.581246	0.756863	0.126063	1.00194	0.0605228	-0.00916008	-0.156767	0.1981	0.0886258	0	0	-0.0551396	-0.0865237	-0.20612	0	0.0133025	0	0	0.0336006	0.113633	0.0242964	0.106653	-0.237411	0.0973725	0.238134	1.53459	0	0	0.113235	-0.185683	0.289534	0.226548	1.5708	0	0
63.89	0.936222	1.48433	0.57472	0.756972	0.126267	1.00202	0.0596016	-0.00845193	-0.156541	0.197384	0.0881116	0	0	-0.0563022	-0.0870514	-0.206873	0	0.013178	0	0	0.0342441	0.113978	0.0248064	0.105601	-0.236954	0.0973782	0.23717	1.53512	0	0	0.111443	-0.185744	0.289048	0.226643	1.5708	0	0
63.9	0.941202	1.48387	0.569263	0.757051	0.126427	1.00209	0.0585221	-0.00761034	-0.156328	0.195751	0.0873372	0	0	-0.0570311	-0.0877897	-0.207595	0	0.0131334	0	0	0.0350469	0.114468	0.0252056	0.104463	-0.23663	0.097286	0.236483	1.53603	0	0	0.110034	-0.185618	0.288977	0.225878	1.5708	0	0
63.91	0.944341	1.48319	0.56569	0.757134	0.126569	1.00212	0.057582	-0.00672305	-0.156234	0.193772	0.0865627	0	0	-0.0572942	-0.0886466	-0.207976	0	0.0132528	0	0	0.0361057	0.115049	0.0255876	0.103178	-0.236372	0.0970827	0.23598	1.53709	0	0	0.108867	-0.185389	0.28912	0.224757	1.5708	0	0
63.92	0.946691	1.48242	0.563001	0.757226	0.126715	1.00213	0.0566234	-0.00581426	-0.156123	0.191442	0.0856372	0	0	-0.0572692	-0.0895441	-0.207987	0	0.0134055	0	0	0.0373086	0.115625	0.0258522	0.101793	-0.236186	0.0968745	0.235621	1.53815	0	0	0.107613	-0.18522	0.289379	0.22394	1.5708	0	0
63.93	0.948599	1.48172	0.560806	0.757323	0.126858	1.00212	0.055661	-0.00497466	-0.155885	0.189168	0.084924	0	0	-0.0571068	-0.0903822	-0.208087	0	0.0137518	0	0	0.0384376	0.116062	0.0260527	0.100415	-0.235961	0.0966219	0.235416	1.53879	0	0	0.10632	-0.185186	0.289854	0.223363	1.5708	0	0
63.94	0.951248	1.48112	0.557876	0.75742	0.127001	1.00211	0.0547266	-0.0041866	-0.155613	0.187308	0.0845017	0	0	-0.057082	-0.0911829	-0.208314	0	0.014071	0	0	0.0393459	0.116428	0.0262375	0.0991533	-0.235749	0.0962799	0.235235	1.53898	0	0	0.105098	-0.185268	0.290385	0.222814	1.5708	0	0
63.95	0.955414	1.48062	0.553435	0.757534	0.127146	1.0021	0.0537637	-0.00336625	-0.155227	0.185801	0.0843012	0	0	-0.0573283	-0.0919559	-0.208563	0	0.0143743	0	0	0.0399884	0.116736	0.0264234	0.0980125	-0.23551	0.0961334	0.234844	1.5391	0	0	0.104082	-0.185386	0.290757	0.22204	1.5708	0	0
63.96	0.95925	1.48029	0.549387	0.757631	0.127282	1.00211	0.0529189	-0.00271244	-0.15481	0.184608	0.0838764	0	0	-0.0577719	-0.0925176	-0.208823	0	0.0145686	0	0	0.0405046	0.116871	0.0265737	0.0969493	-0.235315	0.0965398	0.23443	1.5395	0	0	0.103173	-0.185579	0.291133	0.221303	1.5708	0	0
